<svg width="57" height="42" viewBox="0 0 57 42" fill="none" xmlns="http://www.w3.org/2000/svg">
<path opacity="0.5" fill-rule="evenodd" clip-rule="evenodd" d="M55.6359 42C55.1937 39.4397 53.1045 37.4508 50.5325 35.0021L50.527 34.9969L50.5269 34.9968C49.8224 34.3276 49.0637 33.6068 48.259 32.8021C44.3042 28.8527 41.0894 29.9748 38.4985 30.879L38.4852 30.8837C35.6617 31.8781 33.2257 32.7317 28.1153 27.6212C23.0066 22.5126 23.8577 20.0738 24.8436 17.2489L24.8447 17.2459C25.7524 14.6554 26.8769 11.4282 22.9235 7.47204C22.2213 6.77218 21.5834 6.10244 20.989 5.47839C20.893 5.3776 20.7981 5.278 20.7043 5.17966C17.9756 2.31011 15.8187 0.0421088 12.792 0.00146362C10.2395 -0.0554396 7.56777 1.54327 3.67938 5.43166L3.49713 5.61511L3.42197 5.69721C2.54132 6.55617 0.197449 8.84585 0.172833 13.3168C0.132417 20.0829 5.51655 28.9137 16.171 39.5655C17.0159 40.4102 17.8494 41.2217 18.6713 42H24.7091C22.9533 40.4732 21.0673 38.7141 19.0433 36.6905C6.76571 24.4157 4.2159 17.216 4.23744 13.3385C4.25113 10.5665 5.60868 9.24146 6.26442 8.60469L6.4456 8.42338C6.52097 8.34651 6.56844 8.29579 6.56519 8.29579L6.55932 8.29703L7.07685 7.78879C9.65413 5.28533 11.5021 4.06598 12.7189 4.06598H12.7405C14.0518 4.08491 15.6004 5.71155 17.7444 7.96353L17.7589 7.97875C17.7941 8.01579 17.8295 8.05299 17.8651 8.09036C18.532 8.79113 19.2538 9.54953 20.0513 10.347C22.1988 12.4972 21.8265 13.5621 21.0092 15.9004L21.0078 15.9046L21.0066 15.9081C19.8767 19.1485 18.3304 23.5836 25.243 30.4935C32.1553 37.4112 36.5911 35.8559 39.8291 34.7206L39.8292 34.7206C42.1731 33.8968 43.2325 33.531 45.384 35.6744C46.2132 36.5035 46.999 37.2541 47.7225 37.9397L47.7514 37.9672C49.471 39.6048 50.8268 40.8959 51.383 42H55.6359ZM47.1564 20.7291C46.059 15.0876 41.7046 10.7359 36.0657 9.64114C34.9819 9.42437 33.898 10.1451 33.6839 11.248C33.4699 12.3508 34.1879 13.4157 35.2908 13.6298C39.2957 14.4075 42.3874 17.4992 43.1678 21.5095C43.3575 22.4796 44.2056 23.1516 45.1594 23.1516C45.2895 23.1516 45.4195 23.138 45.5523 23.1137C46.6524 22.8996 47.3705 21.8347 47.1564 20.7291ZM56.7734 20.8625C55.535 9.8151 46.9535 1.24439 35.9034 0.0169088C34.7762 -0.123994 33.7817 0.697038 33.6598 1.81072C33.5352 2.9271 34.3399 3.92968 35.4536 4.05433C44.6042 5.07046 51.709 12.1698 52.7359 21.3177C52.8525 22.3555 53.7304 23.1223 54.7519 23.1223C54.8278 23.1223 54.9064 23.1169 54.9823 23.1088C56.0959 22.9841 56.898 21.9788 56.7734 20.8625Z" fill="#DFDFDF"/>
</svg>
