<svg width="56" height="42" viewBox="0 0 56 42" fill="none" xmlns="http://www.w3.org/2000/svg">
<path opacity="0.5" fill-rule="evenodd" clip-rule="evenodd" d="M20.7092 41.9892C20.9021 41.3312 21.0914 40.6246 21.2937 39.8699C23.1222 33.0457 23.5711 29.649 13.8959 27.0565C4.22065 24.4641 2.91103 27.6301 1.08248 34.4544L2.86582 34.9322L1.06655 34.5138C0.231944 37.6286 -0.388313 39.9434 0.287423 41.9892H4.859C4.33364 41.6601 4.00067 41.3259 3.84726 40.9803C3.47952 40.1434 3.80146 38.6263 4.3451 36.5523L4.88766 34.5235C6.29917 29.3209 6.73658 28.961 12.9402 30.6232L13.4301 30.7556C19.4713 32.4044 19.3046 33.0263 17.7117 38.9713C17.3996 40.136 17.1259 41.1576 16.8434 41.9892H20.7092ZM48.4615 41.9892C48.7645 38.2541 47.0772 35.9475 40.0515 34.0649C30.3763 31.4725 29.0667 34.6385 27.2381 41.4627L29.0215 41.9406L27.2222 41.5222C27.1799 41.6799 27.1382 41.8356 27.0972 41.9892H30.921L31.0433 41.5319C32.4548 36.3293 32.8922 35.9694 39.0958 37.6316L39.5857 37.764C43.8712 38.9336 45.0328 39.5865 44.7774 41.9892H48.4615ZM28.302 13.7143C30.1306 6.89004 30.5794 3.49337 20.9042 0.900908C11.229 -1.69156 9.91942 1.47447 8.09086 8.29871L9.8742 8.77656L8.07494 8.35816C7.17404 11.7203 6.5229 14.1504 7.48187 16.3162C8.58459 18.8111 11.4797 20.0379 15.4887 21.1121C19.4976 22.1863 22.6183 22.5714 24.8207 20.9621C26.7341 19.566 27.3859 17.1335 28.302 13.7143ZM54.4577 20.7227C56.2862 13.8984 56.7351 10.5018 47.0599 7.90929C37.3847 5.31683 36.0751 8.48285 34.2465 15.3071L36.0298 15.7849L34.2306 15.3665C33.3297 18.7287 32.6785 21.1588 33.6375 23.3246C34.7402 25.8194 37.6354 27.0463 41.6443 28.1205C45.6533 29.1947 48.7739 29.5798 50.9763 27.9705C52.8897 26.5744 53.5415 24.1419 54.4577 20.7227ZM19.9485 4.46759L20.4385 4.6C26.4797 6.24873 26.313 6.87071 24.7201 12.8157C24.0141 15.4502 23.5044 17.3525 22.6453 17.9811C21.8063 18.5922 19.8375 18.4546 16.4444 17.5454C13.0513 16.6362 11.2768 15.7734 10.8556 14.8246C10.4879 13.9878 10.8098 12.4707 11.3535 10.3967L11.896 8.36784C13.3076 3.16525 13.745 2.80534 19.9485 4.46759ZM46.1042 11.476L46.5941 11.6084C52.6353 13.2571 52.4687 13.8791 50.8757 19.824C50.1698 22.4586 49.6601 24.3609 48.801 24.9895C47.9619 25.6006 45.9931 25.463 42.6 24.5538C39.2069 23.6446 37.4324 22.7818 37.0113 21.833C36.6435 20.9961 36.9655 19.479 37.5091 17.4051L38.0517 15.3762C39.4632 10.1736 39.9006 9.81372 46.1042 11.476Z" fill="#DFDFDF"/>
</svg>
